# xmcd CD database file
#
# Track frame offsets:
#	150
#	17306
#	34656
#	48846
#	67826
#	84465
#	101612
#	120254
#	139549
#	161559
#	177415
#	195833
#	220063
#	237079
#
# Disc length: 3358 seconds
#
# Revision: 1
# Processed by: cddbd v1.5.2PL0 Copyright (c) Steve Scherf et al.
# Submitted via: CDex 1.51
#
DISCID=9f0d1c0e
DTITLE=The Lost Fingers - Lost in the 80s
DYEAR=2009
DGENRE=Jazz
TTITLE0=Pump Up The Jam
TTITLE1=You Give Love a Bad Name
TTITLE2=You Shook Me All Night Long
TTITLE3=Incognito
TTITLE4=Touch Me
TTITLE5=Part-Time Lover
TTITLE6=Fresh
TTITLE7=Billie Jean
TTITLE8=Careless Whisper
TTITLE9=Tainted Love
TTITLE10=Straight Up
TTITLE11=Black Velvet
TTITLE12=Joe Le Taxi
TTITLE13=Belleville Rendez-Vous
EXTD=YEAR: 2009
EXTT0=
EXTT1=
EXTT2=
EXTT3=
EXTT4=
EXTT5=
EXTT6=
EXTT7=
EXTT8=
EXTT9=
EXTT10=
EXTT11=
EXTT12=
EXTT13=
PLAYORDER=
